<svg width="31" height="30" viewBox="0 0 31 30" fill="none" xmlns="http://www.w3.org/2000/svg">
<path d="M15.3342 29.5242C23.4298 29.5242 30.016 22.938 30.016 14.8423C30.016 6.74667 23.4298 0.160522 15.3342 0.160522C7.2385 0.160522 0.652344 6.74667 0.652344 14.8423C0.652344 22.938 7.2385 29.5242 15.3342 29.5242ZM15.3342 27.1575C12.5115 27.1575 9.90939 26.2005 7.83005 24.5973C8.75354 22.5211 10.8392 21.1246 13.1469 21.1246H17.4799C19.7995 21.1246 21.8934 22.529 22.8154 24.6155C20.74 26.208 18.1465 27.1575 15.3342 27.1575ZM11.4908 13.2289C11.4908 11.1096 13.2149 9.38556 15.3342 9.38556C17.4534 9.38556 19.1775 11.1096 19.1775 13.2289C19.1775 15.3481 17.4534 17.0726 15.3342 17.0726C13.2149 17.0726 11.4908 15.3485 11.4908 13.2289ZM15.3342 2.52714C22.125 2.52714 27.6494 8.0515 27.6494 14.8423C27.6494 17.9345 26.501 20.7619 24.6122 22.9269C23.2765 20.5801 20.8309 18.9923 18.0955 18.7833C20.1362 17.7646 21.5441 15.6607 21.5441 13.2289C21.5441 9.80443 18.7582 7.01894 15.3342 7.01894C11.9101 7.01894 9.1242 9.80483 9.1242 13.2289C9.1242 15.6591 10.531 17.7622 12.5696 18.7817C9.83233 18.9785 7.37917 20.5599 6.03721 22.9048C4.1594 20.7425 3.01896 17.9242 3.01896 14.8423C3.01896 8.0515 8.54332 2.52714 15.3342 2.52714Z" fill="white"/>
</svg>
