<svg width="20" height="20" viewBox="0 0 20 20" fill="none" xmlns="http://www.w3.org/2000/svg">
<path fill-rule="evenodd" clip-rule="evenodd" d="M18.5001 18.4999C18.1586 18.8413 17.3415 19.3413 17.0001 18.9999L1.00005 2.99985C0.658577 2.65838 1.15853 1.84159 1.5 1.50012C1.84147 1.15865 2.65858 0.658468 3.00005 0.999938L19.0001 16.9999C19.3415 17.3413 18.8415 18.1584 18.5001 18.4999Z" fill="#0098DB"/>
<path fill-rule="evenodd" clip-rule="evenodd" d="M1.50005 18.4999C1.15858 18.1584 0.658577 17.3415 1.00005 17.0001L17.0001 0.999938C17.3415 0.658468 18.1586 1.15838 18.5001 1.49985C18.8415 1.84132 19.3415 2.65838 19.0001 2.99985L3.00005 19.0001C2.65858 19.3415 1.84152 18.8413 1.50005 18.4999Z" fill="#0098DB"/>
</svg>
