<svg width="61" height="61" viewBox="0 0 61 61" fill="none" xmlns="http://www.w3.org/2000/svg">
<circle cx="30.5" cy="30.5" r="29" fill="white" stroke="#FC6341" stroke-width="3"/>
<circle cx="30.0662" cy="30.0662" r="21.3519" fill="white"/>
<path d="M30.4985 23.4823C31.3892 22.3383 32.5365 21.6247 33.7736 21.2795C38.0379 20.0919 42.9169 23.2504 42.9169 27.8387C42.9169 32.305 39.8554 34.8441 35.9074 38.1192C34.0077 39.6944 32.247 41.23 30.4985 42.973C28.7501 41.23 26.9894 39.6944 25.0896 38.1192C21.1416 34.8441 18.0802 32.305 18.0802 27.8387C18.0802 23.2504 22.9592 20.0919 27.2235 21.2795C28.4605 21.6247 29.6079 22.3383 30.4985 23.4823ZM34.6778 23.5506C32.6281 24.1223 31.4334 24.6522 30.5051 26.3324C29.5768 24.6522 28.8457 24.1223 26.796 23.5506C23.4244 22.6105 20.3814 24.1822 20.3814 27.8387C20.3814 31.6542 22.6719 33.0323 26.3324 36.0687C27.7584 37.2509 28.9647 37.8262 30.5051 39.3141C32.0454 37.8262 32.7881 37.7145 34.2141 36.5323C37.8746 33.4959 40.705 32.0024 40.705 28.1869C40.705 24.5311 38.0493 22.6105 34.6778 23.5506Z" fill="#FC6341"/>
<path d="M23.5947 26.3378C23.021 26.8781 22.6425 27.6012 22.6425 28.4274C22.6425 28.967 22.7157 29.4786 22.8882 29.9889C23.1662 30.7536 21.9736 31.1247 21.76 30.3525C21.5506 29.7303 21.4499 29.0829 21.4499 28.4274C21.4499 27.2499 21.9777 26.2301 22.7801 25.4756C23.5619 24.7381 24.61 24.2592 25.6786 24.1358C26.014 24.075 26.3324 24.3916 26.3324 24.7245C26.3324 25.1079 26.0805 25.2457 25.756 25.3166C24.8982 25.4858 24.2567 25.7157 23.5947 26.3378Z" fill="#FC6341"/>
<path d="M30.4992 8.71436C42.5301 8.71436 52.2827 18.4348 52.2827 30.4228C52.2827 42.4108 42.5294 52.1298 30.4992 52.1298C18.469 52.1298 8.71436 42.4115 8.71436 30.4228C8.71436 18.4334 18.4676 8.71436 30.4992 8.71436ZM30.5051 11.4961C19.46 11.4961 11.4961 19.4987 11.4961 30.5051C11.4961 41.51 19.4613 49.514 30.5051 49.514C41.5481 49.514 49.514 41.5094 49.514 30.5051C49.514 19.5001 41.5488 11.4961 30.5051 11.4961Z" fill="#FC6341"/>
</svg>
