<?xml version="1.0" encoding="utf-8"?>
<!-- Generator: Adobe Illustrator 23.1.0, SVG Export Plug-In . SVG Version: 6.00 Build 0)  -->
<svg version="1.1" id="Слой_1" xmlns="http://www.w3.org/2000/svg" xmlns:xlink="http://www.w3.org/1999/xlink" x="0px" y="0px"
	 viewBox="0 0 18 16" style="enable-background:new 0 0 18 16;" xml:space="preserve">
<style type="text/css">
	.st0{fill:#FFFFFF;stroke:#FF6847;stroke-width:2;stroke-linecap:round;stroke-linejoin:round;}
</style>
<path class="st0" d="M16.4,6.4c-0.2,0.4-0.4,0.8-0.8,1.1l0,0l-0.9,0.9L9,14.1L3.3,8.4L2.4,7.5C1.8,6.9,1.4,6,1.4,5
	c0-0.9,0.4-1.8,1-2.5s1.6-1,2.5-1c0.9,0,1.8,0.4,2.5,1l0.9,0.9c0.4,0.4,1,0.4,1.4,0l0.9-0.9l0,0c0.3-0.3,0.7-0.6,1.1-0.8
	s0.9-0.3,1.4-0.3c0.5,0,0.9,0.1,1.4,0.3c0.4,0.2,0.8,0.4,1.1,0.8l0,0c0.3,0.3,0.6,0.7,0.8,1.1"/>
<path class="st0" d="M16.4,3.7c0.2,0.4,0.3,0.9,0.3,1.4c0,0.5-0.1,0.9-0.3,1.4"/>
</svg>
