<svg width="15" height="19" viewBox="0 0 15 19" fill="none" xmlns="http://www.w3.org/2000/svg">
<path d="M13.9095 8.04166C13.9095 13 7.67972 17.25 7.67972 17.25C7.67972 17.25 1.44995 13 1.44995 8.04166C1.44995 6.3509 2.1063 4.72939 3.27461 3.53385C4.44292 2.33831 6.02749 1.66666 7.67972 1.66666C9.33196 1.66666 10.9165 2.33831 12.0848 3.53385C13.2531 4.72939 13.9095 6.3509 13.9095 8.04166Z" stroke="#888888" stroke-width="2" stroke-linecap="round" stroke-linejoin="round"/>
<path d="M7.67972 10.1667C8.82659 10.1667 9.75632 9.21526 9.75632 8.04166C9.75632 6.86805 8.82659 5.91666 7.67972 5.91666C6.53286 5.91666 5.60313 6.86805 5.60313 8.04166C5.60313 9.21526 6.53286 10.1667 7.67972 10.1667Z" stroke="#888888" stroke-width="2" stroke-linecap="round" stroke-linejoin="round"/>
</svg>
