<svg width="60" height="60" viewBox="0 0 60 60" fill="none" xmlns="http://www.w3.org/2000/svg">
<circle cx="30" cy="30" r="28.5" fill="white" stroke="#FF6847" stroke-width="3"/>
<path d="M48.2399 26.1905C48.2399 33.6229 43.1107 38.0272 37.9814 42.7619C36.0086 44.3401 32.8582 51.4422 30.4848 51.4422C27.9597 51.4422 25.3556 46.3129 23.7774 44.7347C19.0427 40.3945 12.7297 33.4712 12.7297 26.1905C12.7297 16.3846 20.679 8.43536 30.4848 8.43536C40.2907 8.43536 48.2399 16.3846 48.2399 26.1905Z" fill="white"/>
<path d="M30.0904 6.85712C24.0521 6.85712 17.7329 10.1864 14.3079 15.1428C10.8985 20.077 10.2478 26.9328 12.3351 32.4525C12.8819 33.9292 13.9212 35.482 15.097 36.8435L28.1174 51.8367C28.3227 52.0779 29.0135 52.493 29.3011 52.6258C29.5886 52.7587 29.7734 53.0204 30.0902 53.0204C30.0902 53.0204 30.5918 52.7587 30.8793 52.6258C31.1669 52.493 31.8576 52.0779 32.063 51.8367L45.0834 36.8435C46.31 35.4228 47.3229 33.5693 47.8453 32.1088C49.9312 26.5861 48.8863 20.0749 45.4779 15.1428C42.0532 10.1861 36.1287 6.85712 30.0904 6.85712ZM45.8983 31.6972C45.897 31.7008 45.8956 31.7044 45.8943 31.7082C45.4256 33.0203 44.6512 34.2911 43.5267 35.5932L43.5237 35.5966L30.7856 50.5587C30.6999 50.6594 30.5934 50.7402 30.4733 50.7957C30.3533 50.8511 30.2227 50.8799 30.0904 50.8799C29.9582 50.8799 29.8276 50.8511 29.7075 50.7957C29.5875 50.7402 29.4809 50.6594 29.3952 50.5587L16.6543 35.5931C15.5754 34.3439 14.778 33.0344 14.2826 31.6971C12.3418 26.5643 13.0765 20.7597 16.2484 16.1699C19.4314 11.5627 24.4769 8.92034 30.0904 8.92034C35.704 8.92034 40.7494 11.5627 43.9326 16.17C47.1044 20.7598 47.8391 26.5643 45.8983 31.6972Z" fill="#FF6847"/>
<path d="M30.0904 10.8027C22.1677 10.8027 15.097 17.8733 15.097 25.7959C15.097 33.7185 22.1678 40.7891 30.0904 40.7891C38.0131 40.7891 45.0834 33.7187 45.0834 25.7959C45.0834 17.8731 38.0131 10.8027 30.0904 10.8027ZM30.0904 38.8859C22.8703 38.8859 16.9963 33.0119 16.9963 25.7916C16.9963 18.5714 22.8703 12.6976 30.0904 12.6976C37.3106 12.6976 43.1846 18.5716 43.1846 25.7916C43.1846 33.0117 37.3106 38.8859 30.0904 38.8859Z" fill="#FF6847"/>
<path d="M38.8432 19.7984H34.8228V16.2449C34.8246 16.1624 34.8099 16.0803 34.7795 16.0035C34.7491 15.9268 34.7037 15.8569 34.6459 15.7979C34.5881 15.7389 34.5191 15.6921 34.443 15.6602C34.3668 15.6283 34.285 15.6119 34.2025 15.6121H26.5698C26.3983 15.6101 26.1809 15.6121 26.1809 15.6121C25.7501 15.5374 25.3622 15.9985 25.3555 16.1699V21.4558H23.5612C23.2094 21.4558 22.5936 22.1489 22.5936 22.501V24.2177L21.8045 24.1667C21.6353 24.1714 21.0154 24.2177 20.7167 24.2177C20.7167 24.4386 20.7124 24.8348 20.7167 25.004V32.453C20.7151 32.5355 20.7299 32.6175 20.7604 32.6943C20.7909 32.771 20.8364 32.8409 20.8942 32.8998C20.952 32.9587 21.0211 33.0054 21.0972 33.0373C21.1734 33.0692 21.2551 33.0855 21.3377 33.0854H38.8432C38.9258 33.0855 39.0076 33.0692 39.0838 33.0373C39.16 33.0054 39.229 32.9586 39.2868 32.8996C39.3447 32.8406 39.3902 32.7707 39.4206 32.694C39.4511 32.6172 39.4659 32.5351 39.4641 32.4525V20.41C39.4655 20.3286 39.4502 20.2477 39.4194 20.1722C39.3885 20.0968 39.3427 20.0284 39.2846 19.9713C39.2266 19.9141 39.1575 19.8693 39.0816 19.8396C39.0058 19.8098 38.9246 19.7958 38.8432 19.7984ZM33.5487 16.8862L33.6412 31.3197H27.3283L27.1782 22.5866C27.1782 22.5585 27.1846 22.5301 27.1846 22.501C27.1846 22.4719 27.1782 22.4436 27.1782 22.4155V16.8862H33.5487ZM22.199 25.7959L23.5612 25.6228C23.6427 25.6244 23.7236 25.6094 23.7991 25.5787C23.8746 25.5481 23.9431 25.5025 24.0005 25.4447C24.0579 25.3868 24.1029 25.3179 24.1329 25.2422C24.1629 25.1664 24.1772 25.0854 24.175 25.004V23.1656H25.9041V31.3197H22.199V25.7959ZM37.9813 31.3197H35.2194V21.4558H37.9813V31.3197Z" fill="#FF6847"/>
</svg>
