<svg width="60" height="60" viewBox="0 0 60 60" fill="none" xmlns="http://www.w3.org/2000/svg">
<circle cx="30" cy="30" r="28.5" fill="white" stroke="#FC6341" stroke-width="3"/>
<path d="M31.4085 9.36078L13.6465 16.4656V35.017L15.2253 40.543L17.5936 43.7007L19.9619 46.4637L23.5143 48.8319L27.8561 50.4108H32.5926L38.5133 48.8319L42.0657 46.4637L45.6181 42.9113L46.8022 40.543L48.3811 35.017V17.255L31.4085 9.36078Z" fill="white"/>
<path fill-rule="evenodd" clip-rule="evenodd" d="M31.4214 8.89407L48.8098 16.9817V35.077L47.2035 40.699L45.9705 43.1651L42.3389 46.7967L38.6923 49.2278L32.6489 50.8393H27.7807L23.3195 49.2171L19.6751 46.7875L17.2592 43.969L14.8351 40.7368L13.218 35.077V16.1754L31.4214 8.89407ZM14.0752 16.7557V34.957L15.6158 40.3492L17.9282 43.4323L20.2489 46.1399L23.7092 48.4468L27.9317 49.9822H32.5366L38.3346 48.4361L41.7928 46.1306L45.266 42.6574L46.4012 40.387L47.9526 34.957V17.5283L31.3958 9.82748L14.0752 16.7557Z" fill="#FC6341"/>
<path d="M31.2231 51.4285C41.3396 51.4285 49.5456 43.149 49.5456 33.0394V16.6983C49.5456 16.3933 49.3719 16.1318 49.068 16.0011L31.527 8.63671C31.3534 8.54956 31.1363 8.54956 30.9626 8.63671L13.3348 16.0011C13.0309 16.1318 12.8572 16.3933 12.8572 16.6983V33.0394C12.9006 43.149 21.1066 51.4285 31.2231 51.4285ZM15.6083 17.7417L31.2231 11.3225L46.7876 17.7417V33.0394C46.7876 42.3647 40.446 48.921 31.1979 48.921C21.9498 48.921 15.6083 42.1981 15.6083 32.8729V17.7417ZM26.0563 38.7478H36.3465C37.4753 38.7478 38.5342 37.8327 38.5342 36.6998V30.9041C38.5342 29.7711 37.4753 28.856 36.3465 28.856H36.303V26.2415C36.303 23.409 34.0019 21.1431 31.2231 21.1431C28.4443 21.1431 26.1432 23.4526 26.1432 26.2415V28.856H26.0997C24.9709 28.856 23.8616 29.7711 23.8616 30.9041V36.6998C23.8182 37.8327 24.9275 38.7478 26.0563 38.7478ZM27.9883 26.2415C27.9883 24.2806 29.2441 22.7854 31.1979 22.7854C33.1518 22.7854 34.4076 24.2806 34.4076 26.2415V28.7462H27.9883V26.2415ZM25.6957 30.9041C25.6957 30.5991 25.7958 30.5803 26.0563 30.5803H36.303C36.607 30.5803 36.7002 30.6427 36.7002 30.9041V36.6998C36.7002 37.0048 36.5636 36.9995 36.303 36.9995H26.0997C25.7958 36.9995 25.6957 36.9612 25.6957 36.6998V30.9041Z" fill="#FC6341"/>
</svg>
