<svg width="24" height="24" viewBox="0 0 24 24" fill="none" xmlns="http://www.w3.org/2000/svg">
<path d="M12 24C18.6169 24 24 18.6169 24 12C24 5.38311 18.6169 0 12 0C5.38311 0 0 5.38311 0 12C0 18.6169 5.38311 24 12 24ZM12 22.0657C9.69295 22.0657 7.56613 21.2834 5.86661 19.9731C6.62141 18.2761 8.3261 17.1347 10.2123 17.1347H13.7538C15.6497 17.1347 17.3611 18.2826 18.1147 19.9879C16.4184 21.2896 14.2986 22.0657 12 22.0657ZM8.8587 10.6813C8.8587 8.94913 10.2679 7.53997 12 7.53997C13.7321 7.53997 15.1413 8.94913 15.1413 10.6813C15.1413 12.4134 13.7321 13.8229 12 13.8229C10.2679 13.8229 8.8587 12.4137 8.8587 10.6813ZM12 1.93433C17.5504 1.93433 22.0657 6.44959 22.0657 12C22.0657 14.5273 21.1271 16.8382 19.5832 18.6078C18.4916 16.6897 16.4927 15.3919 14.257 15.2211C15.9249 14.3884 17.0756 12.6689 17.0756 10.6813C17.0756 7.88233 14.7986 5.60564 12 5.60564C9.20138 5.60564 6.92437 7.88265 6.92437 10.6813C6.92437 12.6676 8.07418 14.3865 9.74043 15.2198C7.50315 15.3806 5.49809 16.6732 4.40125 18.5898C2.86645 16.8224 1.93433 14.5189 1.93433 12C1.93433 6.44959 6.44959 1.93433 12 1.93433Z" fill="#FC6341"/>
</svg>
