<svg width="40" height="40" viewBox="0 0 40 40" fill="none" xmlns="http://www.w3.org/2000/svg">
<rect width="40" height="40" rx="4" fill="#FC4848"/>
<rect width="40" height="40" rx="4" stroke="#CFCFCF"/>
<path d="M15.9117 21.8689H19.88C19.1834 23.8383 17.2969 25.2503 15.0882 25.234C12.4083 25.2142 10.1923 23.0703 10.0883 20.3923C9.97678 17.5217 12.2798 15.1508 15.1261 15.1508C16.4275 15.1508 17.6151 15.6467 18.5104 16.4592C18.7225 16.6517 19.0453 16.6529 19.2539 16.4566L20.7115 15.0848C20.9394 14.8702 20.9402 14.5079 20.7129 14.2926C19.293 12.9474 17.3883 12.109 15.2878 12.0679C10.8077 11.9805 7.03141 15.6537 7.0002 20.1345C6.96872 24.649 10.6189 28.3185 15.1261 28.3185C19.4605 28.3185 23.0014 24.9247 23.2386 20.6495C23.2449 20.5959 23.2491 18.7845 23.2491 18.7845H15.9117C15.6109 18.7845 15.3671 19.0282 15.3671 19.329V21.3244C15.3671 21.6251 15.611 21.8689 15.9117 21.8689Z" fill="white"/>
<path d="M29.9732 18.9657V17.0161C29.9732 16.7525 29.7596 16.5389 29.496 16.5389H27.8551C27.5915 16.5389 27.3779 16.7525 27.3779 17.0161V18.9657H25.4283C25.1647 18.9657 24.9511 19.1793 24.9511 19.4428V21.0838C24.9511 21.3473 25.1647 21.5609 25.4283 21.5609H27.3779V23.5105C27.3779 23.7741 27.5915 23.9877 27.8551 23.9877H29.496C29.7596 23.9877 29.9732 23.7741 29.9732 23.5105V21.5609H31.9228C32.1864 21.5609 32.4 21.3473 32.4 21.0838V19.4428C32.4 19.1793 32.1864 18.9657 31.9228 18.9657H29.9732Z" fill="white"/>
</svg>
