<svg width="40" height="40" viewBox="0 0 40 40" fill="none" xmlns="http://www.w3.org/2000/svg">
<rect width="40" height="40" rx="4" fill="#2E5CD2"/>
<rect width="40" height="40" rx="4" stroke="#CFCFCF"/>
<path d="M27.3049 9.99994H12.6951C11.2066 9.99994 10 11.2065 10 12.695V27.3048C10 28.7932 11.2066 29.9998 12.6951 29.9998H19.9006L19.9128 22.853H18.0561C17.8148 22.853 17.6189 22.6578 17.618 22.4165L17.6091 20.1128C17.6082 19.8702 17.8046 19.673 18.0472 19.673H19.9006V17.447C19.9006 14.8638 21.4783 13.4572 23.7827 13.4572H25.6737C25.9157 13.4572 26.1118 13.6533 26.1118 13.8953V15.8378C26.1118 16.0797 25.9158 16.2758 25.674 16.276L24.5135 16.2765C23.2603 16.2765 23.0176 16.872 23.0176 17.746V19.6731H25.7714C26.0338 19.6731 26.2373 19.9022 26.2064 20.1628L25.9334 22.4665C25.9072 22.687 25.7203 22.8531 25.4983 22.8531H23.0299L23.0176 29.9999H27.305C28.7934 29.9999 30 28.7933 30 27.3049V12.695C30 11.2065 28.7934 9.99994 27.3049 9.99994Z" fill="white"/>
</svg>
