<svg width="100" height="53" viewBox="0 0 100 53" fill="none" xmlns="http://www.w3.org/2000/svg">
<path d="M5.41543 37.4561H4.96035L0 42.8116V43.514H1.68378V48.4305C1.68378 51.6349 3.82265 52.7324 6.28007 52.7324C7.41777 52.7324 8.41894 52.5129 9.73867 52.03V49.4401C8.78301 49.923 8.05487 50.0985 7.32675 50.0985C6.28007 50.0985 5.41543 49.2645 5.41543 48.2549V43.5579H9.73867V41.0996H5.41543V37.4561ZM15.5637 44.348H15.5182V41.0557H11.7865V52.469H15.5182V47.5525C16.3373 45.4454 17.2019 44.2163 18.5672 44.2163C19.1588 44.2163 19.7959 44.4797 20.7971 45.0504L21.8438 41.8898C20.7516 41.0996 20.1144 40.8362 19.3863 40.8362C17.8846 40.8362 16.6559 41.9776 15.5637 44.348ZM33.2662 49.5279V44.3041C33.2662 41.802 31.2184 40.8362 28.2603 40.8362C26.3945 40.8362 24.6652 41.3191 23.118 42.2409V45.1821C24.3012 43.9968 25.9849 43.2506 27.4867 43.2506C29.125 43.2506 29.6256 44.0846 29.5346 45.1821C24.5742 46.6746 22.4808 47.2013 22.4808 49.923C22.4808 51.3716 23.8916 52.7324 25.8029 52.7324C27.0772 52.7324 28.2603 52.3812 29.7166 51.4594C29.9896 52.3812 30.5812 52.7324 31.8099 52.7324C32.8111 52.7324 34.2674 52.2934 35.3141 51.6788V49.6596C34.4494 50.2741 34.1764 50.318 33.9033 50.318C33.4938 50.318 33.2662 50.0985 33.2662 49.5279ZM29.5346 49.7474C28.8974 50.2741 28.1693 50.6253 27.4867 50.6253C26.8041 50.6253 26.258 50.0985 26.258 49.3962C26.258 48.2549 27.3047 47.772 29.5346 46.9818V49.7474ZM41.5486 47.3769L39.0457 41.0996H35.041L40.502 52.7763H42.5953L48.0562 41.0996H44.0971L41.5486 47.3769ZM74.7693 37.4561H74.3143L69.3539 42.8116V43.514H71.0377V48.4305C71.0377 51.6349 73.1766 52.7324 75.634 52.7324C76.7717 52.7324 77.7729 52.5129 79.0926 52.03V49.4401C78.1369 49.923 77.4088 50.0985 76.6807 50.0985C75.634 50.0985 74.7693 49.2645 74.7693 48.2549V43.5579H79.0926V41.0996H74.7693V37.4561ZM55.0645 40.8362C51.4238 40.8362 48.8299 43.3384 48.8299 46.8063C48.8299 50.3619 51.5148 52.6885 55.7016 52.6885C56.6117 52.6885 58.8416 52.6885 60.9805 51.196V48.9572C59.2512 50.1863 58.068 50.5814 56.5662 50.5814C54.2453 50.5814 52.7891 49.3962 52.6525 47.3769H61.1625C61.39 43.2067 58.5231 40.8362 55.0645 40.8362ZM52.7891 45.4893C52.9256 43.909 53.8812 42.9872 55.3375 42.9872C56.7937 42.9872 57.7494 43.909 57.8859 45.4893H52.7891ZM87.1475 40.8362C83.6434 40.8362 80.4578 42.8555 80.4578 46.7623C80.4578 50.3619 83.2793 52.7324 87.1475 52.7324C89.7869 52.7324 93.7916 51.3277 93.7916 46.8063C93.7916 42.4165 90.06 40.8362 87.1475 40.8362ZM87.1475 50.5814C85.7367 50.5814 84.417 49.7035 84.417 46.7623C84.417 44.1724 85.5092 42.9872 87.1475 42.9872C89.0133 42.9872 89.8324 44.4797 89.8324 46.7185C89.8324 49.2206 88.8768 50.5814 87.1475 50.5814ZM63.7109 52.5129H67.4426V35.6125H63.7109V52.5129ZM98.0238 6.333C96.249 3.56747 93.5641 2.07496 89.969 0.801943L89.6049 0.714143C89.5139 0.670246 89.4228 0.670248 89.3773 0.62635L88.9223 0.494657L88.4217 0.362971C84.9631 -0.383282 81.459 0.0117903 78.592 1.63599C75.361 3.47967 73.1766 6.59638 72.2664 10.7227C71.2652 15.3319 73.2676 22.4433 78.6375 31.7056L78.865 32.3202L79.0016 38.2463L80.6399 38.6414L83.5979 33.4176C92.5174 27.7109 98.2059 21.7409 99.4346 17.2634C100.527 13.2249 100.026 9.4497 98.0238 6.333ZM88.5582 0.450764C88.6037 0.450764 88.6037 0.450764 88.6492 0.450764C88.6492 0.450764 88.6037 0.450764 88.5582 0.450764ZM79.4111 36.0075L79.3656 32.4519C79.1836 31.8812 75.4975 20.2045 74.9514 17.6146C74.3598 14.9807 74.5418 12.1713 74.5873 12.1713C75.1334 4.05034 80.2758 1.28481 84.3715 0.538557C71.3107 3.65526 77.4998 20.6874 77.4998 20.6874C77.4998 20.6874 77.5453 12.6103 78.8195 8.22057C79.7752 3.61136 83.5069 1.5482 85.7822 0.889736C83.2338 2.03106 80.3668 5.32336 80.0938 13.2688C79.9117 18.8437 79.5932 31.969 79.5932 32.1007C80.1393 32.0129 80.5033 32.0568 81.1404 32.2324L80.0938 36.1831L79.4111 36.0075ZM96.7496 17.3951C96.7496 17.3951 95.6574 19.8095 93.9281 21.8726C92.2443 23.848 83.4158 32.9347 83.0062 33.3298L81.0949 36.5782L80.4123 36.2709L81.5045 32.3202C82.0506 32.408 82.4147 32.6274 82.8242 32.8908C83.4613 31.8812 88.4672 21.4775 91.1976 16.0343C94.5197 9.318 93.5641 4.97218 91.9713 2.64563C93.6096 4.31372 96.067 7.7816 94.7928 12.1713C93.8826 16.6488 89.2863 23.9797 89.2863 23.9797C89.2863 23.9797 103.121 12.4786 93.7461 3.34798C96.8861 5.98181 99.7986 10.5471 96.7496 17.3951Z" fill="white"/>
</svg>
