<svg width="101" height="53" viewBox="0 0 101 53" fill="none" xmlns="http://www.w3.org/2000/svg">
<path d="M5.46958 37.6149H5.00995L0 42.9931V43.6984H1.70062V48.6357C1.70062 51.8538 3.86088 52.9559 6.34287 52.9559C7.49195 52.9559 8.50313 52.7355 9.83606 52.2506V49.6497C8.87084 50.1346 8.13542 50.3109 7.40001 50.3109C6.34287 50.3109 5.46958 49.4733 5.46958 48.4594V43.7425H9.83606V41.2738H5.46958V37.6149ZM15.7193 44.536H15.6733V41.2297H11.9044V52.6914H15.6733V47.7541C16.5007 45.6381 17.374 44.4037 18.7529 44.4037C19.3504 44.4037 19.9939 44.6682 21.0051 45.2413L22.0622 42.0673C20.9591 41.2738 20.3156 41.0093 19.5802 41.0093C18.0634 41.0093 16.8224 42.1555 15.7193 44.536ZM33.5989 49.7378V44.4919C33.5989 41.9792 31.5305 41.0093 28.5429 41.0093C26.6585 41.0093 24.9119 41.4942 23.3491 42.42V45.3736C24.5442 44.1833 26.2448 43.4339 27.7616 43.4339C29.4162 43.4339 29.9218 44.2715 29.8299 45.3736C24.8199 46.8724 22.7057 47.4014 22.7057 50.1346C22.7057 51.5893 24.1305 52.9559 26.061 52.9559C27.3479 52.9559 28.543 52.6032 30.0138 51.6775C30.2895 52.6032 30.887 52.9559 32.128 52.9559C33.1392 52.9559 34.6101 52.5151 35.6672 51.8979V49.8701C34.7939 50.4872 34.5181 50.5313 34.2424 50.5313C33.8287 50.5313 33.5989 50.3109 33.5989 49.7378ZM29.8299 49.9582C29.1864 50.4872 28.451 50.8399 27.7616 50.8399C27.0721 50.8399 26.5206 50.3109 26.5206 49.6056C26.5206 48.4594 27.5777 47.9745 29.8299 47.181V49.9582ZM41.9641 47.5778L39.4362 41.2738H35.3914L40.907 53H43.0213L48.5368 41.2738H44.538L41.9641 47.5778ZM75.517 37.6149H75.0574L70.0474 42.9931V43.6984H71.7481V48.6357C71.7481 51.8538 73.9083 52.9559 76.3903 52.9559C77.5394 52.9559 78.5506 52.7355 79.8835 52.2506V49.6497C78.9183 50.1346 78.1829 50.3109 77.4475 50.3109C76.3903 50.3109 75.517 49.4733 75.517 48.4594V43.7425H79.8835V41.2738H75.517V37.6149ZM55.6151 41.0093C51.9381 41.0093 49.3182 43.5221 49.3182 47.0047C49.3182 50.5754 52.03 52.9118 56.2586 52.9118C57.1778 52.9118 59.43 52.9118 61.5903 51.413V49.1647C59.8437 50.3991 58.6487 50.7958 57.1319 50.7958C54.7878 50.7958 53.317 49.6056 53.1791 47.5778H61.7741C62.0039 43.3898 59.1083 41.0093 55.6151 41.0093ZM53.317 45.6822C53.4548 44.0952 54.4201 43.1694 55.8909 43.1694C57.3617 43.1694 58.3269 44.0952 58.4648 45.6822H53.317ZM88.0189 41.0093C84.4798 41.0093 81.2624 43.0372 81.2624 46.9606C81.2624 50.5754 84.1121 52.9559 88.0189 52.9559C90.6848 52.9559 94.7295 51.5452 94.7295 47.0047C94.7295 42.5963 90.9606 41.0093 88.0189 41.0093ZM88.0189 50.7958C86.5941 50.7958 85.2612 49.9142 85.2612 46.9606C85.2612 44.3597 86.3643 43.1694 88.0189 43.1694C89.9034 43.1694 90.7308 44.6683 90.7308 46.9165C90.7308 49.4293 89.7655 50.7958 88.0189 50.7958ZM64.3481 52.7355H68.117V35.7634H64.3481V52.7355ZM99.0041 6.35982C97.2115 3.58257 94.4997 2.08373 90.8687 0.805313L90.5009 0.717141C90.409 0.673057 90.3171 0.673059 90.2711 0.628975L89.8115 0.496724L89.3059 0.364479C85.8127 -0.384938 82.2736 0.0118098 79.3779 1.64289C76.1146 3.49439 73.9083 6.62432 72.9891 10.7682C71.9779 15.3969 74.0003 22.5384 79.4239 31.84L79.6537 32.4572L79.7916 38.4084L81.4463 38.8052L84.4338 33.5592C93.4426 27.8284 99.1879 21.8331 100.429 17.3366C101.532 13.2809 101.026 9.48974 99.0041 6.35982ZM89.4438 0.452645C89.4897 0.452645 89.4898 0.452645 89.5357 0.452645C89.5357 0.452645 89.4897 0.452645 89.4438 0.452645ZM80.2053 36.1602L80.1593 32.5894C79.9754 32.0163 76.2525 20.2901 75.7009 17.6892C75.1034 15.0442 75.2872 12.2229 75.3332 12.2229C75.8847 4.06748 81.0785 1.29023 85.2152 0.54081C72.0238 3.67073 78.2748 20.7751 78.2748 20.7751C78.2748 20.7751 78.3208 12.6637 79.6077 8.2554C80.573 3.62664 84.3419 1.55473 86.6401 0.893478C84.0661 2.03965 81.1705 5.34589 80.8947 13.325C80.7108 18.9236 80.3891 32.1045 80.3891 32.2367C80.9407 32.1486 81.3084 32.1927 81.9518 32.369L80.8947 36.3365L80.2053 36.1602ZM97.7171 17.4688C97.7171 17.4688 96.614 19.8934 94.8674 21.9653C93.1668 23.9491 84.25 33.0743 83.8363 33.4711L81.9059 36.7332L81.2164 36.4247L82.3195 32.4572C82.8711 32.5453 83.2388 32.7657 83.6525 33.0302C84.296 32.0163 89.3519 21.5686 92.1096 16.1022C95.4649 9.35747 94.4997 4.99323 92.891 2.65681C94.5457 4.33198 97.0277 7.81456 95.7407 12.2229C94.8215 16.7194 90.1792 24.0813 90.1792 24.0813C90.1792 24.0813 104.152 12.5315 94.6836 3.36214C97.855 6.00714 100.797 10.5918 97.7171 17.4688Z" fill="white"/>
</svg>
