<svg width="133" height="71" viewBox="0 0 133 71" fill="none" xmlns="http://www.w3.org/2000/svg">
<path d="M7.20252 50.5667H6.59726L0 57.6894V58.6236H2.23943V65.1625C2.23943 69.4245 5.08413 70.8841 8.3525 70.8841C9.86563 70.8841 11.1972 70.5921 12.9524 69.9499V66.5053C11.6814 67.1475 10.713 67.3811 9.74457 67.3811C8.35249 67.3811 7.20252 66.2718 7.20252 64.929V58.6819H12.9524V55.4125H7.20252V50.5667ZM20.6997 59.7328H20.6391V55.3541H15.6761V70.5338H20.6391V63.9948C21.7286 61.1924 22.8786 59.5577 24.6944 59.5577C25.4812 59.5577 26.3286 59.908 27.6601 60.667L29.0522 56.4634C27.5996 55.4125 26.7522 55.0622 25.7838 55.0622C23.7865 55.0622 22.1523 56.5801 20.6997 59.7328ZM44.244 66.6221V59.6745C44.244 56.3466 41.5204 55.0622 37.5863 55.0622C35.1047 55.0622 32.8048 55.7044 30.7469 56.9304V60.8421C32.3206 59.2658 34.56 58.2733 36.5573 58.2733C38.7362 58.2733 39.402 59.3826 39.281 60.8421C32.6837 62.8272 29.8995 63.5278 29.8995 67.1475C29.8995 69.0742 31.7758 70.8841 34.3179 70.8841C36.0126 70.8841 37.5863 70.417 39.5231 69.1909C39.8862 70.417 40.673 70.8841 42.3072 70.8841C43.6388 70.8841 45.5756 70.3002 46.9677 69.4829V66.7972C45.8177 67.6146 45.4546 67.673 45.0914 67.673C44.5467 67.673 44.244 67.3811 44.244 66.6221ZM39.281 66.914C38.4336 67.6146 37.4652 68.0817 36.5573 68.0817C35.6494 68.0817 34.9232 67.3811 34.9232 66.4469C34.9232 64.929 36.3152 64.2867 39.281 63.2358V66.914ZM55.2597 63.7613L51.9308 55.4125H46.6046L53.8676 70.9425H56.6518L63.9148 55.4125H58.6491L55.2597 63.7613ZM99.4432 50.5667H98.838L92.2407 57.6894V58.6236H94.4801V65.1625C94.4801 69.4245 97.3248 70.8841 100.593 70.8841C102.106 70.8841 103.438 70.5921 105.193 69.9499V66.5053C103.922 67.1475 102.954 67.3811 101.985 67.3811C100.593 67.3811 99.4432 66.2718 99.4432 64.929V58.6819H105.193V55.4125H99.4432V50.5667ZM73.2357 55.0622C68.3937 55.0622 64.9437 58.39 64.9437 63.0023C64.9437 67.7314 68.5147 70.8257 74.0831 70.8257C75.2936 70.8257 78.2593 70.8257 81.104 68.8406V65.8631C78.8041 67.4978 77.2304 68.0233 75.2331 68.0233C72.1463 68.0233 70.2095 66.4469 70.0279 63.7613H81.3461C81.6487 58.2149 77.8357 55.0622 73.2357 55.0622ZM70.2095 61.2508C70.391 59.149 71.6621 57.923 73.5989 57.923C75.5357 57.923 76.8067 59.149 76.9883 61.2508H70.2095ZM115.906 55.0622C111.246 55.0622 107.009 57.7478 107.009 62.9439C107.009 67.7314 110.761 70.8841 115.906 70.8841C119.417 70.8841 124.743 69.0158 124.743 63.0023C124.743 57.164 119.78 55.0622 115.906 55.0622ZM115.906 68.0233C114.03 68.0233 112.275 66.8556 112.275 62.9439C112.275 59.4993 113.727 57.923 115.906 57.923C118.388 57.923 119.477 59.908 119.477 62.8856C119.477 66.2134 118.206 68.0233 115.906 68.0233ZM84.7356 70.5921H89.6986V48.1146H84.7356V70.5921ZM130.372 9.17289C128.011 5.49474 124.44 3.5097 119.659 1.81658L119.174 1.69981C119.053 1.64143 118.932 1.64143 118.872 1.58305L118.267 1.40789L117.601 1.23275C113.001 0.240235 108.34 0.765681 104.527 2.92586C100.23 5.37796 97.3248 9.52319 96.1143 15.0112C94.7828 21.1415 97.4459 30.5996 104.588 42.9184L104.89 43.7358L105.072 51.6176L107.251 52.143L111.185 45.1954C123.048 37.6056 130.614 29.6654 132.248 23.7103C133.701 18.3391 133.035 13.3181 130.372 9.17289ZM117.782 1.34952C117.843 1.34952 117.843 1.34952 117.903 1.34952C117.903 1.34952 117.843 1.34952 117.782 1.34952ZM105.617 48.64L105.556 43.911C105.314 43.152 100.412 27.622 99.6853 24.1774C98.8985 20.6744 99.1406 16.9379 99.2011 16.9379C99.9274 6.13695 106.767 2.4588 112.214 1.46628C94.8433 5.6115 103.075 28.2642 103.075 28.2642C103.075 28.2642 103.135 17.5217 104.83 11.6834C106.101 5.55311 111.064 2.8091 114.09 1.93335C110.701 3.45132 106.888 7.83006 106.525 18.3974C106.283 25.8121 105.859 43.2687 105.859 43.4439C106.585 43.3271 107.069 43.3855 107.917 43.619L106.525 48.8736L105.617 48.64ZM128.677 23.8855C128.677 23.8855 127.224 27.0966 124.924 29.8406C122.685 32.4678 110.943 44.5532 110.398 45.0786L107.856 49.399L106.948 48.9903L108.401 43.7358C109.127 43.8526 109.611 44.1445 110.156 44.4948C111.004 43.152 117.661 29.3151 121.293 22.0756C125.711 13.1429 124.44 7.363 122.322 4.26868C124.501 6.48725 127.769 11.0995 126.074 16.9379C124.864 22.893 118.751 32.643 118.751 32.643C118.751 32.643 137.151 17.3465 124.682 5.20281C128.859 8.70581 132.732 14.7777 128.677 23.8855Z" fill="white"/>
</svg>
